<?xml version="1.0" encoding="UTF-8" standalone="no"?>
<!DOCTYPE svg PUBLIC "-//W3C//DTD SVG 1.1//EN"
 "http://www.w3.org/Graphics/SVG/1.1/DTD/svg11.dtd">
<!-- Generated by graphviz version 14.0.4 (20251115.1723)
 -->
<!-- Title: classes_orders Pages: 1 -->
<svg width="1708pt" height="284pt"
 viewBox="0.00 0.00 1708.00 284.00" xmlns="http://www.w3.org/2000/svg" xmlns:xlink="http://www.w3.org/1999/xlink">
<g id="graph0" class="graph" transform="scale(1 1) rotate(0) translate(4 280)">
<title>classes_orders</title>
<polygon fill="white" stroke="none" points="-4,4 -4,-280 1703.88,-280 1703.88,4 -4,4"/>
<!-- pyreverse_9674gex6.models.OrderPosition.Meta -->
<g id="node1" class="node">
<title>pyreverse_9674gex6.models.OrderPosition.Meta</title>
<polygon fill="none" stroke="black" points="0,-41.75 0,-115.25 142,-115.25 142,-41.75 0,-41.75"/>
<text xml:space="preserve" text-anchor="start" x="56.75" y="-97.95" font-family="Times,serif" font-size="14.00">Meta</text>
<polyline fill="none" stroke="black" points="0,-90.75 142,-90.75"/>
<text xml:space="preserve" text-anchor="start" x="8" y="-73.45" font-family="Times,serif" font-size="14.00">unique_together : tuple</text>
<polyline fill="none" stroke="black" points="0,-66.25 142,-66.25"/>
<text xml:space="preserve" text-anchor="start" x="69.12" y="-48.95" font-family="Times,serif" font-size="14.00"> </text>
</g>
<!-- pyreverse_9674gex6.models.Order -->
<g id="node2" class="node">
<title>pyreverse_9674gex6.models.Order</title>
<polygon fill="none" stroke="black" points="160.25,-17 160.25,-140 327.75,-140 327.75,-17 160.25,-17"/>
<text xml:space="preserve" text-anchor="start" x="228.25" y="-122.7" font-family="Times,serif" font-size="14.00">Order</text>
<polyline fill="none" stroke="black" points="160.25,-115.5 327.75,-115.5"/>
<text xml:space="preserve" text-anchor="start" x="168.25" y="-98.2" font-family="Times,serif" font-size="14.00">objects</text>
<text xml:space="preserve" text-anchor="start" x="168.25" y="-81.7" font-family="Times,serif" font-size="14.00">order_date : DateTimeField</text>
<text xml:space="preserve" text-anchor="start" x="168.25" y="-65.2" font-family="Times,serif" font-size="14.00">total_price : FloatField</text>
<text xml:space="preserve" text-anchor="start" x="168.25" y="-48.7" font-family="Times,serif" font-size="14.00">user : ForeignKey</text>
<polyline fill="none" stroke="black" points="160.25,-41.5 327.75,-41.5"/>
<text xml:space="preserve" text-anchor="start" x="242.12" y="-24.2" font-family="Times,serif" font-size="14.00"> </text>
</g>
<!-- pyreverse_9674gex6.models.OrderManager -->
<g id="node3" class="node">
<title>pyreverse_9674gex6.models.OrderManager</title>
<polygon fill="none" stroke="black" points="110.75,-210 110.75,-275.5 377.25,-275.5 377.25,-210 110.75,-210"/>
<text xml:space="preserve" text-anchor="start" x="203.88" y="-258.2" font-family="Times,serif" font-size="14.00">OrderManager</text>
<polyline fill="none" stroke="black" points="110.75,-251 377.25,-251"/>
<polyline fill="none" stroke="black" points="110.75,-251 377.25,-251"/>
<text xml:space="preserve" text-anchor="start" x="118.75" y="-233.7" font-family="Times,serif" font-size="14.00">get_by_id(id: int): models.QuerySet</text>
<text xml:space="preserve" text-anchor="start" x="118.75" y="-217.2" font-family="Times,serif" font-size="14.00">get_order_positions(id: int): models.QuerySet</text>
</g>
<!-- pyreverse_9674gex6.models.Order&#45;&gt;pyreverse_9674gex6.models.OrderManager -->
<g id="edge1" class="edge">
<title>pyreverse_9674gex6.models.Order&#45;&gt;pyreverse_9674gex6.models.OrderManager</title>
<path fill="none" stroke="black" d="M244,-140.38C244,-159.7 244,-180.67 244,-198.49"/>
<polygon fill="black" stroke="black" points="244,-208.48 239.5,-198.48 244,-204.7 244,-198.48 244,-198.48 244,-198.48 244,-204.7 248.5,-198.48 244,-208.48"/>
<text xml:space="preserve" text-anchor="middle" x="263.12" y="-178.2" font-family="Times,serif" font-size="14.00" fill="green">objects</text>
</g>
<!-- pyreverse_9674gex6.services.OrderModel -->
<g id="node4" class="node">
<title>pyreverse_9674gex6.services.OrderModel</title>
<polygon fill="none" stroke="black" points="345.75,-0.5 345.75,-156.5 594.25,-156.5 594.25,-0.5 345.75,-0.5"/>
<text xml:space="preserve" text-anchor="start" x="436.25" y="-139.2" font-family="Times,serif" font-size="14.00">OrderModel</text>
<polyline fill="none" stroke="black" points="345.75,-132 594.25,-132"/>
<text xml:space="preserve" text-anchor="start" x="353.75" y="-114.7" font-family="Times,serif" font-size="14.00">customer : Optional[CustomerModel]</text>
<text xml:space="preserve" text-anchor="start" x="353.75" y="-98.2" font-family="Times,serif" font-size="14.00">id : Optional[int]</text>
<text xml:space="preserve" text-anchor="start" x="353.75" y="-81.7" font-family="Times,serif" font-size="14.00">order_date</text>
<text xml:space="preserve" text-anchor="start" x="353.75" y="-65.2" font-family="Times,serif" font-size="14.00">order_number : str</text>
<text xml:space="preserve" text-anchor="start" x="353.75" y="-48.7" font-family="Times,serif" font-size="14.00">order_positions : list[OrderPositionModel]</text>
<text xml:space="preserve" text-anchor="start" x="353.75" y="-32.2" font-family="Times,serif" font-size="14.00">total_price : float</text>
<polyline fill="none" stroke="black" points="345.75,-25 594.25,-25"/>
<text xml:space="preserve" text-anchor="start" x="468.12" y="-7.7" font-family="Times,serif" font-size="14.00"> </text>
</g>
<!-- pyreverse_9674gex6.models.OrderPosition -->
<g id="node5" class="node">
<title>pyreverse_9674gex6.models.OrderPosition</title>
<polygon fill="none" stroke="black" points="611.88,-8.75 611.88,-148.25 816.12,-148.25 816.12,-8.75 611.88,-8.75"/>
<text xml:space="preserve" text-anchor="start" x="676.12" y="-130.95" font-family="Times,serif" font-size="14.00">OrderPosition</text>
<polyline fill="none" stroke="black" points="611.88,-123.75 816.12,-123.75"/>
<text xml:space="preserve" text-anchor="start" x="619.88" y="-106.45" font-family="Times,serif" font-size="14.00">order : models.ForeignKey[Order]</text>
<text xml:space="preserve" text-anchor="start" x="619.88" y="-89.95" font-family="Times,serif" font-size="14.00">pos : PositiveIntegerField</text>
<text xml:space="preserve" text-anchor="start" x="619.88" y="-73.45" font-family="Times,serif" font-size="14.00">price : FloatField</text>
<text xml:space="preserve" text-anchor="start" x="619.88" y="-56.95" font-family="Times,serif" font-size="14.00">product : ForeignKey</text>
<text xml:space="preserve" text-anchor="start" x="619.88" y="-40.45" font-family="Times,serif" font-size="14.00">quantity : IntegerField</text>
<polyline fill="none" stroke="black" points="611.88,-33.25 816.12,-33.25"/>
<text xml:space="preserve" text-anchor="start" x="712.12" y="-15.95" font-family="Times,serif" font-size="14.00"> </text>
</g>
<!-- pyreverse_9674gex6.services.OrderPositionModel -->
<g id="node6" class="node">
<title>pyreverse_9674gex6.services.OrderPositionModel</title>
<polygon fill="none" stroke="black" points="834.62,-17 834.62,-140 1037.38,-140 1037.38,-17 834.62,-17"/>
<text xml:space="preserve" text-anchor="start" x="880.12" y="-122.7" font-family="Times,serif" font-size="14.00">OrderPositionModel</text>
<polyline fill="none" stroke="black" points="834.62,-115.5 1037.38,-115.5"/>
<text xml:space="preserve" text-anchor="start" x="842.62" y="-98.2" font-family="Times,serif" font-size="14.00">pos : int</text>
<text xml:space="preserve" text-anchor="start" x="842.62" y="-81.7" font-family="Times,serif" font-size="14.00">price : float</text>
<text xml:space="preserve" text-anchor="start" x="842.62" y="-65.2" font-family="Times,serif" font-size="14.00">product : Optional[ProductModel]</text>
<text xml:space="preserve" text-anchor="start" x="842.62" y="-48.7" font-family="Times,serif" font-size="14.00">quantity : int</text>
<polyline fill="none" stroke="black" points="834.62,-41.5 1037.38,-41.5"/>
<text xml:space="preserve" text-anchor="start" x="934.12" y="-24.2" font-family="Times,serif" font-size="14.00"> </text>
</g>
<!-- pyreverse_9674gex6.services.OrderService -->
<g id="node7" class="node">
<title>pyreverse_9674gex6.services.OrderService</title>
<polygon fill="none" stroke="black" points="1055.88,-8.75 1055.88,-148.25 1542.12,-148.25 1542.12,-8.75 1055.88,-8.75"/>
<text xml:space="preserve" text-anchor="start" x="1263" y="-130.95" font-family="Times,serif" font-size="14.00">OrderService</text>
<polyline fill="none" stroke="black" points="1055.88,-123.75 1542.12,-123.75"/>
<text xml:space="preserve" text-anchor="start" x="1251.38" y="-106.45" font-family="Times,serif" font-size="14.00">customer_service</text>
<text xml:space="preserve" text-anchor="start" x="1251.38" y="-89.95" font-family="Times,serif" font-size="14.00">product_service</text>
<polyline fill="none" stroke="black" points="1055.88,-82.75 1542.12,-82.75"/>
<text xml:space="preserve" text-anchor="start" x="1063.88" y="-65.45" font-family="Times,serif" font-size="14.00">create_order(order: OrderModel): Optional[int]</text>
<text xml:space="preserve" text-anchor="start" x="1063.88" y="-48.95" font-family="Times,serif" font-size="14.00">get_order(order_id: int): OrderModel</text>
<text xml:space="preserve" text-anchor="start" x="1063.88" y="-32.45" font-family="Times,serif" font-size="14.00">get_order_model(customer: Customer, product_list: list[ProductModel]): OrderModel</text>
<text xml:space="preserve" text-anchor="start" x="1063.88" y="-15.95" font-family="Times,serif" font-size="14.00">get_orders(username: str): list[OrderModel]</text>
</g>
<!-- pyreverse_9674gex6.apps.OrdersConfig -->
<g id="node8" class="node">
<title>pyreverse_9674gex6.apps.OrdersConfig</title>
<polygon fill="none" stroke="black" points="1560.12,-33.5 1560.12,-123.5 1699.88,-123.5 1699.88,-33.5 1560.12,-33.5"/>
<text xml:space="preserve" text-anchor="start" x="1592.88" y="-106.2" font-family="Times,serif" font-size="14.00">OrdersConfig</text>
<polyline fill="none" stroke="black" points="1560.12,-99 1699.88,-99"/>
<text xml:space="preserve" text-anchor="start" x="1568.12" y="-81.7" font-family="Times,serif" font-size="14.00">default_auto_field : str</text>
<text xml:space="preserve" text-anchor="start" x="1568.12" y="-65.2" font-family="Times,serif" font-size="14.00">name : str</text>
<polyline fill="none" stroke="black" points="1560.12,-58 1699.88,-58"/>
<text xml:space="preserve" text-anchor="start" x="1628.12" y="-40.7" font-family="Times,serif" font-size="14.00"> </text>
</g>
</g>
</svg>
