<?xml version="1.0" encoding="UTF-8" standalone="no"?>
<!DOCTYPE svg PUBLIC "-//W3C//DTD SVG 1.1//EN"
 "http://www.w3.org/Graphics/SVG/1.1/DTD/svg11.dtd">
<!-- Generated by graphviz version 14.0.4 (20251115.1723)
 -->
<!-- Title: packages_orders Pages: 1 -->
<svg width="917pt" height="260pt"
 viewBox="0.00 0.00 917.00 260.00" xmlns="http://www.w3.org/2000/svg" xmlns:xlink="http://www.w3.org/1999/xlink">
<g id="graph0" class="graph" transform="scale(1 1) rotate(0) translate(4 256)">
<title>packages_orders</title>
<polygon fill="white" stroke="none" points="-4,4 -4,-256 912.5,-256 912.5,4 -4,4"/>
<!-- pyreverse_9674gex6 -->
<g id="node1" class="node">
<title>pyreverse_9674gex6</title>
<polygon fill="none" stroke="black" points="128.5,-36 0,-36 0,0 128.5,0 128.5,-36"/>
<text xml:space="preserve" text-anchor="start" x="8" y="-12.95" font-family="Times,serif" font-size="14.00">pyreverse_9674gex6</text>
</g>
<!-- pyreverse_9674gex6.admin -->
<g id="node2" class="node">
<title>pyreverse_9674gex6.admin</title>
<polygon fill="none" stroke="black" points="313.62,-36 146.88,-36 146.88,0 313.62,0 313.62,-36"/>
<text xml:space="preserve" text-anchor="start" x="154.88" y="-12.95" font-family="Times,serif" font-size="14.00">pyreverse_9674gex6.admin</text>
</g>
<!-- pyreverse_9674gex6.apps -->
<g id="node3" class="node">
<title>pyreverse_9674gex6.apps</title>
<polygon fill="none" stroke="black" points="488.75,-36 331.75,-36 331.75,0 488.75,0 488.75,-36"/>
<text xml:space="preserve" text-anchor="start" x="339.75" y="-12.95" font-family="Times,serif" font-size="14.00">pyreverse_9674gex6.apps</text>
</g>
<!-- pyreverse_9674gex6.context_processor -->
<g id="node4" class="node">
<title>pyreverse_9674gex6.context_processor</title>
<polygon fill="none" stroke="black" points="737.5,-36 507,-36 507,0 737.5,0 737.5,-36"/>
<text xml:space="preserve" text-anchor="start" x="515" y="-12.95" font-family="Times,serif" font-size="14.00">pyreverse_9674gex6.context_processor</text>
</g>
<!-- pyreverse_9674gex6.views -->
<g id="node9" class="node">
<title>pyreverse_9674gex6.views</title>
<polygon fill="none" stroke="black" points="704.12,-108 540.38,-108 540.38,-72 704.12,-72 704.12,-108"/>
<text xml:space="preserve" text-anchor="start" x="548.38" y="-84.95" font-family="Times,serif" font-size="14.00">pyreverse_9674gex6.views</text>
</g>
<!-- pyreverse_9674gex6.context_processor&#45;&gt;pyreverse_9674gex6.views -->
<g id="edge1" class="edge">
<title>pyreverse_9674gex6.context_processor&#45;&gt;pyreverse_9674gex6.views</title>
<path fill="none" stroke="black" d="M622.25,-36.3C622.25,-43.68 622.25,-52.48 622.25,-60.75"/>
<polygon fill="black" stroke="black" points="622.25,-70.68 617.75,-60.68 622.25,-66.9 622.25,-60.68 622.25,-60.68 622.25,-60.68 622.25,-66.9 626.75,-60.68 622.25,-70.68"/>
</g>
<!-- pyreverse_9674gex6.logging -->
<g id="node5" class="node">
<title>pyreverse_9674gex6.logging</title>
<polygon fill="none" stroke="black" points="651,-252 477.5,-252 477.5,-216 651,-216 651,-252"/>
<text xml:space="preserve" text-anchor="start" x="485.5" y="-228.95" font-family="Times,serif" font-size="14.00">pyreverse_9674gex6.logging</text>
</g>
<!-- pyreverse_9674gex6.models -->
<g id="node6" class="node">
<title>pyreverse_9674gex6.models</title>
<polygon fill="none" stroke="black" points="841.25,-252 669.25,-252 669.25,-216 841.25,-216 841.25,-252"/>
<text xml:space="preserve" text-anchor="start" x="677.25" y="-228.95" font-family="Times,serif" font-size="14.00">pyreverse_9674gex6.models</text>
</g>
<!-- pyreverse_9674gex6.services -->
<g id="node7" class="node">
<title>pyreverse_9674gex6.services</title>
<polygon fill="none" stroke="black" points="768.12,-180 592.38,-180 592.38,-144 768.12,-144 768.12,-180"/>
<text xml:space="preserve" text-anchor="start" x="600.38" y="-156.95" font-family="Times,serif" font-size="14.00">pyreverse_9674gex6.services</text>
</g>
<!-- pyreverse_9674gex6.services&#45;&gt;pyreverse_9674gex6.logging -->
<g id="edge2" class="edge">
<title>pyreverse_9674gex6.services&#45;&gt;pyreverse_9674gex6.logging</title>
<path fill="none" stroke="black" d="M651.28,-180.48C636.5,-189.4 618.32,-200.37 602.42,-209.97"/>
<polygon fill="black" stroke="black" points="593.9,-215.11 600.13,-206.09 597.13,-213.16 602.46,-209.94 602.46,-209.94 602.46,-209.94 597.13,-213.16 604.78,-213.8 593.9,-215.11"/>
</g>
<!-- pyreverse_9674gex6.services&#45;&gt;pyreverse_9674gex6.models -->
<g id="edge3" class="edge">
<title>pyreverse_9674gex6.services&#45;&gt;pyreverse_9674gex6.models</title>
<path fill="none" stroke="black" d="M698.79,-180.3C707.8,-188.72 718.8,-198.98 728.69,-208.21"/>
<polygon fill="black" stroke="black" points="735.77,-214.82 725.39,-211.29 733.01,-212.24 728.46,-208 728.46,-208 728.46,-208 733.01,-212.24 731.53,-204.71 735.77,-214.82"/>
</g>
<!-- pyreverse_9674gex6.urls -->
<g id="node8" class="node">
<title>pyreverse_9674gex6.urls</title>
<polygon fill="none" stroke="black" points="908.5,-36 756,-36 756,0 908.5,0 908.5,-36"/>
<text xml:space="preserve" text-anchor="start" x="764" y="-12.95" font-family="Times,serif" font-size="14.00">pyreverse_9674gex6.urls</text>
</g>
<!-- pyreverse_9674gex6.views&#45;&gt;pyreverse_9674gex6.logging -->
<g id="edge4" class="edge">
<title>pyreverse_9674gex6.views&#45;&gt;pyreverse_9674gex6.logging</title>
<path fill="none" stroke="black" d="M606.47,-108.44C598.39,-118.24 589.06,-131.08 583.25,-144 574.59,-163.27 569.79,-186.69 567.19,-204.67"/>
<polygon fill="black" stroke="black" points="565.93,-214.39 562.75,-203.89 566.41,-210.64 567.21,-204.47 567.21,-204.47 567.21,-204.47 566.41,-210.64 571.67,-205.05 565.93,-214.39"/>
</g>
<!-- pyreverse_9674gex6.views&#45;&gt;pyreverse_9674gex6.services -->
<g id="edge5" class="edge">
<title>pyreverse_9674gex6.views&#45;&gt;pyreverse_9674gex6.services</title>
<path fill="none" stroke="black" d="M636.59,-108.3C643.33,-116.44 651.51,-126.31 658.95,-135.3"/>
<polygon fill="black" stroke="black" points="665.3,-142.96 655.46,-138.13 662.89,-140.05 658.92,-135.26 658.92,-135.26 658.92,-135.26 662.89,-140.05 662.39,-132.39 665.3,-142.96"/>
</g>
</g>
</svg>
